<?xml version="1.0" standalone="no"?> <!DOCTYPE svg PUBLIC "-//W3C//DTD SVG 1.0//EN" "http://www.w3.org/TR/2001/REC-SVG-20010904/DTD/svg10.dtd" > <svg xmlns="http://www.w3.org/2000/svg" width="100%" height="100%">
<defs >
<font horiz-adv-x="682" ><font-face
    font-family="Modi Thorson Italic"
    units-per-em="1000"
    panose-1="0 0 0 0 0 0 0 0 0 0"
    ascent="752"
    descent="-146"
    alphabetic="0" />
<missing-glyph horiz-adv-x="500" />
<glyph unicode=" " glyph-name="space" horiz-adv-x="318" />
<glyph unicode="!" glyph-name="FL0021h" horiz-adv-x="288" d="M137 493Q138 524 137 558H393L390 552Q381 538 375 525T365 498L298 188H71L137 493ZM42 71Q44 81 50 93T66 115T88 133T116 140H229Q242 140 251 133T266 116T274 93T274 71Q271 59 263 46T244
23T219 7T188 0H95Q79 0 68 7T50 24T41 47T42 71Z" />
<glyph unicode="&quot;" glyph-name="FL0023h" horiz-adv-x="420" d="M515 558H343L296 341H468L515 558ZM317 558H145L98 341H270L317 558Z" />
<glyph unicode="#" glyph-name="FL0024h" horiz-adv-x="769" d="M79 253L48 108H137L130 75Q129 72 125 62T116 39T105 16T98 0H356Q356 17 354 36T356 77L363 108H452L445 75Q444 72 440 62T431 39T420 16T413 0H671Q671 17 669 36T671 77L678 108H767L798 253H709L722
311H811L842 456H753L761 494Q765 511 772 526T791 558H535Q536 524 535 493L527 456H438L446 494Q450 511 457 526T476 558H220Q221 524 220 493L212 456H123L92 311H181L168 253H79ZM394 253L407 311H496L483 253H394Z" />
<glyph unicode="$" glyph-name="FL0026h" horiz-adv-x="764" d="M364 493L358 465H125L101 352Q96 329 111 309T152 272T211 246T274 236H511Q513 236 518 235T525 232Q545 219 549 212T549 188H125Q111 188 95 192T67 198L46 101H279L273 73Q273 70 269 60T259
38T249 16T241 0H499Q499 17 497 35T500 75L505 101H760L771 150Q779 184 780 216T758 279Q752 289 738 298T703 314T659 325T610 329H368Q361 329 354 331T341 337T334 350T333 369L334 374H718Q725 374 738 371T759 366L761 365L783 465H584L590 494Q594 511
601 526T620 558H364Q365 524 364 493Z" />
<glyph unicode="%" glyph-name="FL0025h" horiz-adv-x="871" d="M504 127Q498 102 502 79T520 39T553 11T601 0H740Q742 0 747 1T758 3T769 6T777 9Q818 24 846 53T882 122Q889 155 881 179T851 224L846 228Q844 228 843 230Q833 235 819 240T792 246H653Q628
246 604 237T559 211T524 173T504 127ZM639 123Q641 134 651 147T678 160H731Q745 160 751 147T756 123Q752 109 740 96T710 83H666Q649 83 642 96T639 123ZM109 439Q104 414 108 391T126 351T159 323T207 312H346Q348 312 353 313T364 315T375 318T383 321Q424
336 452 365T488 434Q495 467 487 491T457 536L452 540Q450 540 449 542Q439 547 426 552T399 558H260Q235 558 211 549T165 523T130 485T109 439ZM244 435Q246 446 257 459T285 472H338Q352 472 357 459T361 435Q358 421 345 408T315 395H271Q254 395 248 408T244
435ZM322 0L854 548Q857 552 858 552T861 558H663L156 36L114 5L113 0H322Z" />
<glyph unicode="&amp;" glyph-name="FL0027h" horiz-adv-x="828" d="M395 416V419H693Q699 417 703 417T711 415T722 411T741 403L775 558H218L212 553Q212 552 210 546T205 531L199 502Q188 448 184 404T191 312Q149 281 124 254T82 198T57 135T37 56L34 43Q32
31 30 19T27 5L31 0H749L755 5Q756 7 759 19T764 43L767 56Q778 105 782 140T782 207H848L879 351H420Q418 356 413 363T404 378T396 396T395 416ZM544 132H292Q294 139 299 151T311 177T328 199T348 210H522Q532 209 537 200T545 177T547 152T544 132Z" />
<glyph unicode="&apos;" glyph-name="FL0022h" horiz-adv-x="222" d="M317 558H145L98 341H270L317 558Z" />
<glyph unicode="(" glyph-name="FL0028h" horiz-adv-x="430" d="M10 -70Q18 -63 25 -50T35 -29L161 561Q167 587 161 602T150 628H525L493 481Q485 483 473 485T459 490H367L276 63H321Q330 63 344 64T372 68T400 73T422 79L390 -70H10Z" />
<glyph unicode=")" glyph-name="FL0029h" horiz-adv-x="430" d="M390 -70Q385 -63 383 -50T383 -29L509 561Q515 587 528 602T550 628H175L143 481Q152 483 164 485T181 490H273L182 63H137Q128 63 115 64T88 68T62 73T42 79L10 -70H390Z" />
<glyph unicode="*" glyph-name="FL002Ah" horiz-adv-x="280" d="M353 450L343 459Q330 470 321 474T302 486H354Q366 486 370 488Q375 515 375 535Q375 556 357 576L343 577Q320 558 300 552Q305 562 309 574T319 601L314 603Q303 607 294 609T273 612Q265 612
251 609T218 601Q217 584 216 570T219 549L172 576Q146 556 136 535T120 488H188L187 484Q170 474 156 467T123 444Q142 411 198 392L202 398Q215 411 221 423T234 445Q236 436 242 422T256 392Q285 403 309 418T353 450Z" />
<glyph unicode="+" glyph-name="FL002Bh" horiz-adv-x="454" d="M404 484H259L232 355H102L70 210H200L172 80H317L345 210H474L506 355H377L404 484Z" />
<glyph unicode="," glyph-name="FL002Ch" horiz-adv-x="263" d="M33 83L32 80Q30 72 29 62T29 41T34 23T50 13L49 10Q45 -9 33 -22T-1 -52L-34 -74L-35 -77H119Q130 -74 152 -61T196 -30T237 9T260 51L267 83Q268 94 266 108T258 134T243 154T219 162H112Q97 162
84 154T60 134T42 108T33 83Z" />
<glyph unicode="-" glyph-name="FL002Dh" horiz-adv-x="336" d="M101 354H387L356 210H70L101 354Z" />
<glyph unicode="." glyph-name="FL002Eh" horiz-adv-x="263" d="M33 83Q35 94 42 108T59 134T83 154T112 162H219Q233 162 243 154T259 134T266 108T266 83Q263 68 255 54T234 27T206 8T174 0H87Q70 0 59 8T40 28T32 54T33 83Z" />
<glyph unicode="/" glyph-name="FL002Fh" horiz-adv-x="766" d="M269 0L863 548Q867 551 868 552T871 558H639L64 36L16 5L15 0H269Z" />
<glyph unicode="0" glyph-name="FL2019h" horiz-adv-x="856" d="M77 288Q65 233 74 181T111 89T183 25T287 0H589Q593 0 604 2T627 8T651 14T669 21Q758 55 819 120T900 277Q916 351 898 405T836 508L823 518Q820 518 817 522Q795 534 766 546T709 558H407Q352
558 298 536T199 477T122 390T77 288ZM289 282Q293 303 305 327T336 374T378 410T429 425H613Q637 425 653 411T679 375T691 328T690 282Q685 256 671 230T635 182T586 147T529 133H381Q352 133 332 147T301 182T287 230T289 282Z" />
<glyph unicode="1" glyph-name="FL0031h" horiz-adv-x="440" d="M189 35L168 0H422Q421 1 420 6T418 17T416 28T415 36L518 517L545 558H145L114 414Q137 420 155 423T174 426H272L189 35Z" />
<glyph unicode="2" glyph-name="FL0032h" horiz-adv-x="790" d="M797 149L765 0H25L39 66Q45 93 51 118T68 169T94 218T131 266Q142 282 165 297T215 324T267 343T307 350H588Q596 350 611 358T629 379Q631 385 628 389L617 419H219Q215 419 208 417T194 413T180
408T170 404L203 558H659Q717 558 757 549T821 520T851 467T848 384Q840 350 813 318T750 262T675 222T605 207H359Q357 207 351 205T342 200Q328 190 320 184T306 170T298 155T292 133H731Q746 133 765 140T797 149Z" />
<glyph unicode="3" glyph-name="FL0033h" horiz-adv-x="798" d="M565 421L575 418Q577 418 577 415Q576 410 570 402T556 383T541 365T530 352H208Q189 356 178 359T160 363T152 364T149 365L113 196Q115 199 130 202T157 208T172 210H538Q549 210 554 201T562
179T565 153T562 132H151Q142 132 129 133T103 137T77 143T57 149L25 0H767L773 5Q774 7 777 19T782 43L785 56Q795 101 800 135T801 198T783 254T741 312Q773 360 787 404T813 502L819 531Q824 549 824 553L820 558H160L128 411Q137 413 150 416T167 422L565 421Z"
/>
<glyph unicode="4" glyph-name="FL0034h" horiz-adv-x="866" d="M389 558H135Q136 541 139 529T139 496L94 288Q83 238 92 211T124 172T182 157T258 154H549L525 41Q520 31 515 20T501 0H760Q751 25 751 50L775 159H876L907 303H806L851 512Q856 522 862 531T877
551L882 558H621Q622 552 625 536T626 512L581 303H322L366 511Q368 514 371 520T377 534T383 548T389 558Z" />
<glyph unicode="5" glyph-name="FL0035h" horiz-adv-x="790" d="M780 409L812 558H145L131 492Q119 438 117 389T137 292Q141 276 158 261T196 234T240 215T277 208H558Q563 208 569 204T578 193T582 178T576 162L558 139H102Q94 139 79 145T58 154L25 0H539Q597
0 641 9T718 38T770 91T802 174Q809 208 796 240T758 296T700 336T636 351H390Q388 351 383 353T375 358Q366 368 361 374T353 388T351 403T355 425H721Q736 425 752 418T780 409Z" />
<glyph unicode="6" glyph-name="FL0036h" horiz-adv-x="753" d="M784 215Q788 234 786 258T770 304T728 340T652 355H320Q340 384 368 404T429 425H772Q774 423 786 421T800 418H806L837 558H377Q309 558 257 532T168 466T108 377T75 282Q66 241 73 192T102 101T160
29T246 0H568Q591 0 624 17T690 64T748 133T784 215ZM567 211Q545 179 514 157T446 134H372Q335 134 315 156T287 211H567Z" />
<glyph unicode="7" glyph-name="FL0037h" horiz-adv-x="648" d="M148 35L127 0H381Q380 1 379 6T377 17T375 28T374 36L714 426L743 558H145L114 414Q137 420 155 423T174 426H488L148 35Z" />
<glyph unicode="8" glyph-name="FL0038h" horiz-adv-x="798" d="M218 558L212 553Q212 552 210 546T205 531L199 502Q188 448 184 404T191 312Q149 281 124 254T82 198T57 135T37 56L34 43Q32 31 30 19T27 5L31 0H767L773 5Q774 7 777 19T782 43L785 56Q795 101
800 135T801 198T783 254T741 312Q773 360 787 404T813 502L819 531Q824 549 824 553L820 558H218ZM292 132Q294 139 299 151T311 177T328 199T348 210H540Q550 209 555 200T563 177T565 152T562 132H292ZM395 419H573Q575 414 573 409Q571 399 565 391T552 375T539
362T530 352H420Q418 357 413 363T404 378T396 396T395 416V419Z" />
<glyph unicode="9" glyph-name="FL0039h" horiz-adv-x="753" d="M88 343Q84 324 86 300T103 254T145 218T221 203H553Q532 174 503 154T442 133H99Q97 135 85 137T71 140H65L35 0H495Q563 0 615 26T704 92T763 181T796 276Q805 316 798 365T770 457T712 529T626
558H304Q284 558 251 541T185 494T125 425T88 343ZM306 347Q326 379 357 401T425 424H499Q536 424 557 402T586 347H306Z" />
<glyph unicode=":" glyph-name="FL003Ah" horiz-adv-x="263" d="M33 83Q35 94 42 108T59 134T83 154T112 162H219Q233 162 243 154T259 134T266 108T266 83Q263 68 255 54T234 27T206 8T174 0H87Q70 0 59 8T40 28T32 54T33 83ZM89 342Q92 353 99 367T116 393T140
413T169 421H276Q290 421 300 413T315 393T323 367T322 342Q319 327 311 313T290 286T263 267T231 259H144Q127 259 115 267T97 287T88 313T89 342Z" />
<glyph unicode=";" glyph-name="FL003Bh" horiz-adv-x="263" d="M89 342Q86 328 88 314T96 287T115 267T144 259H231Q248 259 263 266T290 286T310 312T322 342Q325 353 323 367T316 393T300 413T276 421H169Q154 421 141 413T117 393T99 367T89 342ZM33 83L32
80Q30 72 29 62T29 41T34 23T50 13L49 10Q45 -9 33 -22T-1 -52L-34 -74L-35 -77H119Q130 -74 152 -61T196 -30T237 9T260 51L267 83Q268 94 266 108T258 134T243 154T219 162H112Q97 162 84 154T60 134T42 108T33 83Z" />
<glyph unicode="&lt;" glyph-name="FL003Ch" horiz-adv-x="536" d="M379 512Q381 520 378 536T374 558H641L636 551Q628 541 622 532T610 512L321 275L515 51Q516 50 517 44T519 29T520 13T521 0H254Q256 5 257 5L271 26L74 275L379 512Z" />
<glyph unicode="=" glyph-name="FL003Dh" horiz-adv-x="454" d="M123 456L92 311H496L527 456H123ZM79 253L48 108H452L483 253H79Z" />
<glyph unicode="&gt;" glyph-name="FL003Eh" horiz-adv-x="536" d="M377 512Q378 516 381 522T388 536T396 549T402 558H135L136 551Q139 541 142 532T146 512L333 275L43 51Q41 50 38 44T30 29T21 13T15 0H282Q284 5 281 5L275 26L580 275L377 512Z" />
<glyph unicode="?" glyph-name="FL003Fh" horiz-adv-x="731" d="M97 187Q106 224 131 254T191 306T263 338T335 350H500Q507 350 515 352T532 362T546 383T558 416V419H160Q157 419 150 417T135 413T121 408T112 404L145 558H826L789 384Q781 350 754 318T691
262T616 222T546 207H387Q376 207 368 204T354 197T341 190T329 187H97ZM74 71Q76 81 82 93T98 115T120 133T148 140H261Q274 140 283 133T298 116T306 93T306 71Q303 59 295 46T276 23T251 7T220 0H127Q111 0 100 7T82 24T73 47T74 71Z" />
<glyph unicode="@" glyph-name="FL0040h" horiz-adv-x="967" d="M353 288Q347 263 351 240T369 200T402 172T450 161H960L1046 561Q1052 587 1065 602T1087 628H150Q154 617 160 602T161 561L35 -29Q33 -37 26 -50T10 -70H656L688 79Q680 76 667 73T639 68T610
65T587 63H276L367 490H810L768 294H733Q737 323 729 344T701 385L695 389Q693 389 692 391Q682 396 669 401T642 407H503Q478 407 454 398T409 372T374 334T353 288ZM488 284Q490 295 501 308T528 321H581Q595 321 601 308T605 284L596 245H515H513Q496 245 491
257T488 284Z" />
<glyph unicode="A" glyph-name="FL0041h" horiz-adv-x="1076" d="M18 6L17 0H293Q300 35 321 61T367 117Q370 123 374 123H757Q759 123 761 117Q761 115 763 110T767 97T771 84T776 76Q780 65 784 44T783 0H1059L1060 6L1059 8Q1053 16 1044 31T1031 59L852 608L859
642H500L494 613L86 76Q73 59 54 40T18 6ZM501 294L642 482L705 294H501Z" />
<glyph unicode="B" glyph-name="FL0042h" horiz-adv-x="949" d="M153 642Q155 622 158 607T158 572L51 71Q46 51 35 34T15 0H918L925 6L942 84Q952 130 956 166T956 233T935 295T888 359Q906 386 919 412T941 464T958 518T972 577L979 611Q981 620 982 627T984
636L979 642H153ZM342 253H648Q660 253 668 242T680 215T684 184T683 159H322L342 253ZM390 476H683Q669 422 647 400T598 377H369L390 476Z" />
<glyph unicode="C" glyph-name="FL0043h" horiz-adv-x="845" d="M427 154H814L839 161L859 169L823 0H281Q224 0 183 33T116 115T83 221T85 324Q96 377 129 433T209 536T313 612T432 642H961L926 481H919Q916 481 903 483T886 489H492Q462 489 435 473T385 433T348
379T327 324Q321 297 323 267T338 212T372 171T427 154Z" />
<glyph unicode="D" glyph-name="FL0044h" horiz-adv-x="897" d="M155 642Q154 629 155 620T157 601T159 579T154 547L50 59Q46 41 34 28T17 0H613Q670 0 725 33T827 115T907 221T950 324Q961 377 953 433T917 536T845 612T739 642H155ZM395 489H612Q643 489 664
473T696 433T709 379T707 324Q701 297 686 267T647 211T596 170T534 153H323L395 489Z" />
<glyph unicode="E" glyph-name="FL0045h" horiz-adv-x="774" d="M29 0Q38 8 46 23T57 47L168 565Q171 580 171 591T167 612T161 628T155 642H869L832 473Q824 475 811 478T793 483H404L388 407H713Q759 416 772 418T786 420L744 225Q743 228 728 232T699 239T683
242H353L334 153H669Q679 153 695 154T728 158T760 164T786 171L749 0H29Z" />
<glyph unicode="F" glyph-name="FL0046h" horiz-adv-x="756" d="M29 0H316Q313 13 313 25T311 48L353 242H683Q684 242 694 241T715 237T736 231T744 225L786 420Q785 420 780 420T773 417L713 407H388L404 483H793Q797 481 810 478T832 473L869 642H155Q157 635
160 628T167 612T170 592T168 565L57 47Q55 38 47 23T29 0Z" />
<glyph unicode="G" glyph-name="FL0047h" horiz-adv-x="860" d="M622 265Q623 283 623 301T622 339H916Q905 318 896 302T882 266L825 0H283Q226 0 185 33T118 115T85 221T87 324Q98 377 131 433T211 536T315 612T434 642H963L928 481H921Q918 481 905 483T888
489H494Q464 489 437 473T387 433T350 379T329 324Q323 297 325 267T340 212T374 171T429 154H598L622 265Z" />
<glyph unicode="H" glyph-name="FL0048h" horiz-adv-x="904" d="M153 642L154 636Q156 619 156 605T150 570L41 59Q37 41 29 26T15 0H300Q302 6 299 6L293 30L343 260H660L614 47Q609 36 602 23T587 0H885Q875 29 875 58L989 589Q1001 611 1019 634L1025 642H725Q725
639 726 632T729 616T730 601T730 589L696 430H379L413 588Q415 591 418 599T424 615T431 631T438 642H153Z" />
<glyph unicode="I" glyph-name="FL0049h" horiz-adv-x="331" d="M157 567L54 86Q53 82 48 71T37 45T26 19T17 0H314Q313 20 312 41T315 89L418 568Q422 588 431 605T452 642H158Q160 622 159 604T157 567Z" />
<glyph unicode="J" glyph-name="FL004Ah" horiz-adv-x="810" d="M322 319H86Q82 302 80 293T75 275Q70 253 67 224T68 165T88 105T133 52T213 15T336 0H560Q607 6 651 30T733 92T797 178T835 277L905 600Q910 608 915 618T928 639L930 642H641Q641 639 642 638T644
636V631Q646 622 648 616T649 600L579 277Q565 237 544 213T501 176T463 159T440 155Q418 155 393 161T348 185T320 235T322 319Z" />
<glyph unicode="K" glyph-name="FL004Bh" horiz-adv-x="925" d="M156 595L39 47Q38 46 35 35T17 0H300Q296 17 295 32T293 53L330 223H337Q339 223 345 219T352 212L554 0H907L908 6L869 41L582 352L983 630Q987 634 989 635T994 642H662Q661 642 654 638T642
630Q632 623 613 610T568 581T516 547T463 513T418 485T389 466L384 472L408 591Q413 609 418 618T434 642H155L154 636Q155 633 155 627T156 615T157 602Q157 597 156 595Z" />
<glyph unicode="L" glyph-name="FL004Ch" horiz-adv-x="767" d="M165 596L50 59Q44 27 18 0H742L779 171Q754 165 734 161T693 153H323L415 583Q419 600 428 614T447 642H155Q158 631 160 617T165 596Z" />
<glyph unicode="M" glyph-name="FL004Dh" horiz-adv-x="1055" d="M156 595L44 68Q44 68 42 62T37 48T32 33T29 24L17 0H294Q291 17 291 32Q291 47 292 67L349 336L360 355L526 -5L840 347Q846 353 847 353L852 352L791 67Q790 64 787 55T779 37T771 18T765 3L762
0H1037Q1037 17 1037 34Q1037 51 1042 71L1153 592Q1155 604 1157 609T1162 619T1168 627T1175 642H880L608 336L601 329H595L590 336L452 642H155L154 636Q155 633 155 627T156 615T157 602Q157 597 156 595Z" />
<glyph unicode="N" glyph-name="FL004Eh" horiz-adv-x="888" d="M155 642L154 636L156 619Q155 613 156 605T156 595L38 41Q38 39 36 34T30 22T23 9T17 0H294L291 41L358 351L363 345Q371 333 387 310T425 256T469 193T513 130T550 77T575 41Q578 37 583 30T593
17T602 5T606 0H871Q866 17 866 38T869 76L978 582Q979 585 983 595T993 615T1003 634T1009 642H722Q728 627 730 613T729 582L665 283H661Q661 283 655 292T625 336T557 438T432 619L415 642H155Z" />
<glyph unicode="O" glyph-name="FL004Fh" horiz-adv-x="983" d="M88 334Q74 270 85 210T128 103T211 28T330 0H676Q681 0 693 2T720 9T749 17T770 24Q872 65 942 141T1035 321Q1044 364 1044 401T1034 470T1006 532T962 589Q933 609 895 628T814 647H468Q405 647
343 622T228 553T139 453T88 334ZM334 327Q338 351 352 380T388 434T437 477T495 495H706Q733 495 752 478T783 435T797 380T796 327Q789 297 772 266T730 210T674 169T609 153H439Q406 153 383 169T347 211T331 267T334 327Z" />
<glyph unicode="P" glyph-name="FL0050h" horiz-adv-x="881" d="M48 58Q42 41 36 27T22 0H300Q299 21 300 53L326 173H591Q673 173 737 203T847 278T918 370T953 453L994 642H155Q157 625 160 608T158 570L48 58ZM392 482H690Q680 437 656 409T598 366T520 345T428
339H362L392 482Z" />
<glyph unicode="Q" glyph-name="FL0051h" horiz-adv-x="984" d="M88 334Q103 395 140 451T230 550T344 618T469 644H816Q848 644 881 631T940 603Q942 598 947 598Q978 566 999 535T1031 471T1044 401T1036 321Q1018 236 968 169T841 58L884 -8L924 -44L923 -49H641L606
0H331Q263 0 212 28T129 103T85 210T88 334ZM683 302L738 217Q760 240 774 269T796 327Q800 351 797 379T783 433T752 474T705 491H494Q463 491 436 474T388 433T353 380T334 327Q327 298 330 267T347 211T384 169T440 152H505L402 302H683Z" />
<glyph unicode="R" glyph-name="FL0052h" horiz-adv-x="944" d="M48 58Q42 41 36 27T22 0H300Q299 21 300 53L326 171H479L613 0H953Q954 2 952 4T950 6Q889 63 841 125T743 253Q770 257 801 278T861 327T911 389T939 453L980 642H155Q157 625 160 608T158 570L48
58ZM392 482H676Q665 431 636 403T570 360T492 343T415 339H362L392 482Z" />
<glyph unicode="S" glyph-name="FL0053h" horiz-adv-x="901" d="M62 171L25 0H876L892 76Q906 139 910 196T894 305Q889 323 872 341T831 372T779 394T724 403H436Q417 403 405 421T401 482H859Q863 482 870 480T885 475T900 469T910 465L948 642H163L120 442Q111
403 126 366T171 301T238 255T312 238H595Q597 238 602 235T610 230Q622 219 628 211T636 195T638 178T634 153H130Q113 153 94 161T62 171Z" />
<glyph unicode="T" glyph-name="FL0054h" horiz-adv-x="898" d="M328 40L304 0H596Q595 1 593 7T590 20T588 33T587 41L683 490H901Q904 489 912 488T931 485T953 481T975 476L1011 642H163L127 476Q154 483 175 486T197 490H424L328 40Z" />
<glyph unicode="U" glyph-name="FL0055h" horiz-adv-x="956" d="M157 600L97 319Q82 252 96 194T147 92T236 25T354 0H636Q683 6 738 30T844 92T932 178T981 277L1051 600Q1056 608 1061 618T1074 639L1076 642H792Q793 638 795 636Q797 623 797 618T796 604L725
277Q711 242 688 220T637 183T578 164T514 158Q491 158 459 165T399 186T353 222T342 277L411 596Q413 603 421 619T435 642H155Q156 628 156 618T157 600Z" />
<glyph unicode="V" glyph-name="FL0056h" horiz-adv-x="1078" d="M572 160L879 564Q884 573 896 591T922 642H1198L1197 637Q1180 623 1161 603T1127 566L721 30L715 0H353L361 36L184 583Q179 596 169 612T154 637L155 642H432Q427 621 430 601T437 569V567Q438
567 438 566Q439 563 440 557T447 537T460 495T483 424T519 316T572 160Z" />
<glyph unicode="W" glyph-name="FL0057h" horiz-adv-x="1187" d="M252 0H505L624 223L634 236Q639 232 639 228T642 219L678 6L682 0H944L1276 600Q1280 608 1290 622T1308 642H1084Q1087 622 1082 600L918 306Q915 294 904 289L901 300L848 642H673L489 300Q486
298 484 294T479 289Q479 289 478 288T475 286L474 289Q472 291 470 303T469 319Q467 328 465 349T461 398T456 456T451 514T448 564T447 596V606Q449 617 453 626T462 642H155Q163 634 166 630T171 621T173 611T177 596L252 0Z" />
<glyph unicode="X" glyph-name="FL0058h" horiz-adv-x="913" d="M889 59Q891 51 893 31T896 0H577Q579 6 581 6L597 30L493 167L328 30L335 6Q338 6 336 0H17Q20 6 24 14T32 31T42 47T50 59L376 316L167 589Q167 600 163 607T157 634L155 642H473Q471 639 467
632T457 616T448 601T443 589L555 457L722 589Q723 593 723 600T721 616T719 631T716 642H1034L1028 634Q1017 614 1011 607T998 589L672 316L889 59Z" />
<glyph unicode="Y" glyph-name="FL0059h" horiz-adv-x="921" d="M388 299L165 589Q165 600 161 607T155 634L153 642H471Q469 639 465 632T455 616T446 601T441 589L553 457L720 589Q721 593 721 600T719 616T717 631T714 642H1044L1038 634Q1027 614 1021 607T1008
589L647 297L602 89Q597 63 600 43T602 0H305Q308 7 313 20T325 46T335 71T341 86L388 299Z" />
<glyph unicode="Z" glyph-name="FL005Ah" horiz-adv-x="901" d="M913 171L876 0H25L41 76Q48 107 56 136T76 194T105 250T147 306Q160 324 187 341T244 372T303 394T349 403H639Q656 403 677 421T707 482H249Q245 482 237 480T220 475T204 469T193 465L231 642H1014L971
442Q962 403 931 366T859 301T773 255T692 238H409Q406 238 400 235T389 230Q374 219 365 211T349 195T340 178T333 153H839Q856 153 878 161T913 171Z" />
<glyph unicode="[" glyph-name="FL005Bh" horiz-adv-x="430" d="M10 -70Q18 -63 25 -50T35 -29L161 561Q167 587 161 602T150 628H525L493 481Q485 483 473 485T459 490H367L276 63H321Q330 63 344 64T372 68T400 73T422 79L390 -70H10Z" />
<glyph unicode="\" glyph-name="FL005Ch" horiz-adv-x="766" d="M139 548L497 0H751L752 5L718 36L367 558H135Q133 553 135 552T139 548Z" />
<glyph unicode="]" glyph-name="FL005Dh" horiz-adv-x="430" d="M390 -70Q385 -63 383 -50T383 -29L509 561Q515 587 528 602T550 628H175L143 481Q152 483 164 485T181 490H273L182 63H137Q128 63 115 64T88 68T62 73T42 79L10 -70H390Z" />
<glyph unicode="^" glyph-name="FL005Eh" horiz-adv-x="937" d="M557 419L292 68Q287 60 276 44T254 0H14L15 4Q29 17 46 34T75 66L428 532L434 558H749L742 527L896 51Q900 40 908 26T922 4L921 0H680Q684 18 681 35T676 63L675 65Q674 65 674 66Q673 68 672
73T667 91T656 127T635 189T603 284T557 419Z" />
<glyph unicode="_" glyph-name="FL005Fh" horiz-adv-x="470" d="M55 144H477L446 0H24L55 144Z" />
<glyph unicode="`" glyph-name="FL0060h" horiz-adv-x="288" d="M223 429H365L295 558H135L223 429Z" />
<glyph unicode="a" glyph-name="a" horiz-adv-x="936" d="M16 5L15 0H255Q262 30 280 53T318 102Q321 107 325 107H658Q659 107 661 102Q662 100 663 95T667 84T672 73T675 66Q678 57 682 39T681 0H921L922 5L921 7Q915 15 907 27T896 51L741 529L747 558H435L429
533L75 66Q63 51 47 35T16 5ZM436 256L558 419L613 256H436Z" />
<glyph unicode="b" glyph-name="b" horiz-adv-x="830" d="M135 558Q136 541 139 528T139 497L45 62Q42 45 33 30T15 0H800L806 5L821 75Q830 115 833 146T833 204T815 257T774 312Q806 360 820 404T846 502L852 531Q857 549 857 553L853 558H135ZM299 220H565Q576
220 582 210T592 187T596 159Q596 145 595 138H281L299 220ZM341 414H595Q584 366 563 347T522 328H323L341 414Z" />
<glyph unicode="c" glyph-name="FL0063h" horiz-adv-x="739" d="M372 134H709L732 140L749 147L717 0H246Q196 0 160 29T103 100T74 192T75 282Q85 328 113 377T183 466T274 532T377 558H837L806 418H800Q798 418 786 420T772 425H429Q403 425 379 411T336 376T304
330T285 282Q280 258 282 232T294 184T324 148T372 134Z" />
<glyph unicode="d" glyph-name="d" horiz-adv-x="780" d="M135 558Q134 547 135 539T137 523T138 503Q138 492 134 476L43 51Q39 35 30 24T15 0H533Q582 0 630 29T719 100T788 192T825 282Q835 328 828 377T797 466T735 532T643 558H135ZM343 425H532Q559 425
577 411T605 376T617 330T614 282Q609 258 596 232T562 184T517 148T464 133H280L343 425Z" />
<glyph unicode="e" glyph-name="e" horiz-adv-x="676" d="M25 0Q33 7 40 20T50 41L146 491Q152 517 145 532T135 558H756L724 411Q716 413 704 415T690 420H352L338 354H620Q640 358 652 360T671 363T680 364T683 365L647 196Q646 199 633 202T608 208T594 210H307L290
133H581Q590 133 604 134T632 138T660 143T683 149L651 0H25Z" />
<glyph unicode="f" glyph-name="FL0066h" horiz-adv-x="661" d="M25 0H275Q271 20 271 42L307 210H594Q594 210 603 209T622 205T640 201T647 196L683 365Q682 365 678 365T673 363L620 354H338L352 420H690Q692 418 704 416T724 411L756 558H135Q138 547 145
532T146 491L50 41Q48 33 41 20T25 0Z" />
<glyph unicode="g" glyph-name="FL0067h" horiz-adv-x="748" d="M540 230Q542 246 542 262T541 295H797Q786 276 778 262T767 231L717 0H246Q196 0 160 29T103 100T74 192T75 282Q85 328 113 377T183 466T274 532T377 558H837L806 418H800Q798 418 786 420T772
425H429Q403 425 379 411T336 376T304 330T285 282Q280 258 282 232T294 184T324 148T372 134H519L540 230Z" />
<glyph unicode="h" glyph-name="h" horiz-adv-x="792" d="M135 558Q136 541 138 529T137 496L41 51Q37 35 29 23T15 0H267Q269 5 266 5L260 26L303 226H579L540 41Q535 31 530 20T516 0H775Q766 25 766 50L866 512Q871 522 877 531T892 551L897 558H636Q637 552
640 536T641 512L611 374H335L364 511Q366 514 369 520T375 534T381 548T387 558H135Z" />
<glyph unicode="i" glyph-name="i" horiz-adv-x="288" d="M137 493L47 75Q46 72 42 62T33 39T22 16T15 0H273Q273 17 271 36T273 77L363 494Q367 511 374 526T393 558H137Q138 524 137 493Z" />
<glyph unicode="j" glyph-name="FL00B6h" horiz-adv-x="704" d="M279 277H74L70 257Q66 241 63 216T63 162T77 104T115 52T184 15T292 0H487Q528 5 567 26T638 81T693 155T727 241L787 522Q790 528 795 537T808 556L809 558H559Q559 555 561 553L562 549Q563 541
564 535T564 520L504 241Q492 206 475 186T440 156T410 142T391 139Q371 139 348 143T307 163T279 205T279 277Z" />
<glyph unicode="k" glyph-name="k" horiz-adv-x="804" d="M136 517L34 41Q34 39 30 30T15 0H261Q258 14 257 27T254 46L286 194H292Q294 194 299 190T306 184L482 0H789L790 5L756 36L505 306L855 548Q859 551 860 552T864 558H576Q575 558 569 555T559 548Q547
539 515 519T448 475T382 432T338 405L333 410L355 514Q358 530 363 538T377 558H135L134 553Q135 548 136 535T136 517Z" />
<glyph unicode="l" glyph-name="l" horiz-adv-x="670" d="M143 518L43 51Q40 38 34 25T16 0H645L677 149Q655 144 638 140T602 133H280L360 507Q364 521 372 533T389 558H135Q138 548 140 536T143 518Z" />
<glyph unicode="m" glyph-name="m" horiz-adv-x="917" d="M136 517L38 59Q38 59 36 54T32 42T27 29T25 21L15 0H256Q254 14 254 27T253 58L304 292L312 309L457 -4L729 302Q736 307 736 307L740 306L687 58Q686 55 684 48T678 32T671 15T665 3L663 0H902L901 2Q899
31 905 62L1002 515Q1004 525 1006 530T1010 538T1015 546T1022 558H765L529 292L522 286H517L513 292L393 558H135L134 553Q135 548 136 535T136 517Z" />
<glyph unicode="n" glyph-name="n" horiz-adv-x="772" d="M135 558L134 553L136 538Q134 533 135 526T136 517L33 36Q33 34 31 29T26 19T20 8T15 0H256L253 36L311 308L316 303L500 36Q502 32 506 26T515 14T523 4T527 0H757Q754 14 753 32T756 66L850 506Q851
509 855 517T864 535T873 551T877 558H628Q639 532 633 506L577 246H574Q574 246 572 249T563 262T543 292T509 344T455 424T376 538L361 558H135Z" />
<glyph unicode="o" glyph-name="o" horiz-adv-x="855" d="M77 290Q65 234 74 182T111 90T183 25T287 0H588Q592 0 603 2T626 8T651 14T669 21Q759 56 819 122T900 279Q916 354 899 409T837 512Q812 530 778 546T708 563H407Q352 563 298 541T199 481T121 394T77
290ZM290 284Q294 305 306 330T337 378T379 415T430 430H614Q638 430 654 415T680 378T692 331T691 284Q685 258 671 231T635 182T586 147T529 133H381Q352 133 332 147T301 184T287 232T290 284Z" />
<glyph unicode="p" glyph-name="FL0070h" horiz-adv-x="769" d="M41 50Q36 36 32 24T19 0H261Q260 10 260 21Q260 32 260 46L283 150H514Q586 150 641 176T736 241T799 322T828 394L864 558H135Q137 543 139 528T138 496L41 50ZM340 419H599Q591 380 572 356T525
318T458 300T373 295H315L340 419Z" />
<glyph unicode="q" glyph-name="FL0071h" horiz-adv-x="856" d="M77 290Q90 343 122 392T200 478T298 538T407 560H709Q736 560 766 548T818 524Q821 520 824 520Q851 492 869 465T897 409T908 348T901 279Q885 206 841 147T731 50L768 -7L803 -38L802 -43H557L527
0H288Q229 0 185 24T112 89T75 182T77 290ZM595 263L642 189Q661 209 673 234T691 284Q695 305 693 330T680 376T654 412T613 427H429Q402 427 379 413T338 376T307 330T290 284Q284 259 287 232T301 183T333 147T382 132H438L351 263H595Z" />
<glyph unicode="r" glyph-name="r" horiz-adv-x="829" d="M41 50Q36 36 32 24T19 0H261Q260 10 260 21Q260 32 260 46L283 149H416L533 0H829Q830 2 828 3T826 5Q774 55 732 109T646 220Q669 224 696 241T748 284T792 339T816 394L852 558H135Q137 543 139 528T138
496L41 50ZM340 419H587Q578 375 554 351T497 314T428 298T361 295H315L340 419Z" />
<glyph unicode="s" glyph-name="s" horiz-adv-x="790" d="M57 149L25 0H765L781 75Q787 101 791 126T797 176T796 225T781 272Q776 288 762 302T728 327T683 344T633 350H382Q374 350 367 353T355 363T348 381T350 411L351 419H749Q757 419 772 413T794 404L827
558H145L108 384Q100 350 113 318T152 262T211 222T275 207H521Q523 207 527 205T534 200Q544 190 549 184T557 170T558 155T554 133H115Q100 133 84 140T57 149Z" />
<glyph unicode="t" glyph-name="FL0074h" horiz-adv-x="787" d="M288 35L267 0H521Q520 1 519 6T517 17T515 28T514 36L597 426H786Q791 424 812 421T851 414L882 558H145L114 414Q137 420 155 423T174 426H371L288 35Z" />
<glyph unicode="u" glyph-name="u" horiz-adv-x="831" d="M136 522L83 277Q71 219 83 169T127 81T205 22T308 0H553Q594 5 642 26T734 81T811 155T854 241L914 522Q917 528 922 537T935 556L936 558H689Q689 555 691 553Q693 542 693 538T692 525L631 241Q618
211 598 191T554 159T503 142T447 137Q427 137 400 143T347 161T307 194T298 241L357 518Q359 524 366 538T378 558H135Q135 547 135 538T136 522Z" />
<glyph unicode="v" glyph-name="FL0076h" horiz-adv-x="937" d="M498 139L764 490Q769 498 780 514T802 558H1042L1041 554Q1026 541 1009 524T981 492L627 26L622 0H307L314 31L159 507Q156 518 148 532T134 554L135 558H376Q371 540 374 523T380 495L381 493Q382
493 382 492Q383 489 386 478T400 431T434 326T498 139Z" />
<glyph unicode="w" glyph-name="w" horiz-adv-x="1032" d="M219 0H439L542 194L551 205Q556 202 556 198Q556 194 557 190L590 5L593 0H821L1109 522Q1112 529 1121 541T1137 558H943Q944 542 941 522L799 266Q797 261 794 257T786 251L783 261L737 558H585L425
261Q422 259 421 256T417 251Q417 251 416 250T413 249L412 251Q410 253 409 263T407 277Q405 289 402 323T396 396T391 469T388 518L389 527Q394 547 402 558H135Q141 551 144 547T148 540T151 532T154 518L219 0Z" />
<glyph unicode="x" glyph-name="FL007Bh" horiz-adv-x="794" d="M773 51Q775 44 777 27T779 0H502Q504 5 505 5L519 26L428 145L285 26L291 5Q294 5 292 0H15Q20 10 29 27T43 51L327 275L146 512Q145 522 142 528T136 551L135 558H411Q409 555 405 549T397 536T390
523T386 512L482 397L628 512Q630 520 627 536T623 558H899L894 551Q886 534 880 528T868 512L584 275L773 51Z" />
<glyph unicode="y" glyph-name="FL007Ch" horiz-adv-x="808" d="M339 260L146 512Q145 522 142 528T136 551L135 558H411Q409 555 405 549T397 536T390 523T386 512L482 397L628 512Q630 520 627 536T623 558H913L908 551Q900 534 894 528T882 512L564 258L525
77Q520 55 523 38T525 0H267Q269 6 274 17T284 40T294 62T299 75L339 260Z" />
<glyph unicode="z" glyph-name="FL007Ah" horiz-adv-x="790" d="M797 149L765 0H25L39 66Q45 93 51 118T68 169T94 218T131 266Q142 282 165 297T215 324T267 343T307 350H559Q566 350 574 352T591 362T605 383T617 416V419H219Q216 419 209 417T194 413T180 408T171
404L204 558H885L848 384Q840 350 813 318T750 262T675 222T605 207H359Q357 207 351 205T342 200Q328 190 320 184T306 170T298 155T292 133H732Q747 133 766 140T797 149Z" />
<glyph unicode="{" glyph-name="FL007Eh" horiz-adv-x="527" d="M487 -70H107Q115 -63 122 -50T132 -29L183 210H70L101 354H214L258 561Q264 587 258 602T247 628H622L590 481Q582 483 570 485T556 490H464L373 63H418Q427 63 441 64T469 68T497 73T519 79L487 -70Z" />
<glyph unicode="|" glyph-name="FL00BCh" horiz-adv-x="288" d="M167 634L19 -56Q18 -59 14 -69T5 -92T-6 -115T-13 -131H245Q246 -113 244 -95T246 -54L393 635Q397 652 404 666T423 699H167Q169 682 169 666T167 634Z" />
<glyph unicode="}" glyph-name="FL007Dh" horiz-adv-x="527" d="M10 -70H390Q385 -63 383 -50T383 -29L434 210H547L578 354H465L509 561Q515 587 528 602T550 628H175L143 481Q152 483 164 485T181 490H273L182 63H137Q128 63 115 64T88 68T62 73T42 79L10 -70Z" />
<glyph unicode="~" glyph-name="FL0080h" horiz-adv-x="288" d="M273 65Q270 34 273 0H17L20 6Q28 20 35 33T45 60L111 370H338L273 65ZM368 487Q366 477 360 465T343 443T321 425T293 418H180Q167 418 158 425T143 442T136 465T136 487Q139 499 147 512T166 535T191
551T222 558H315Q331 558 342 551T360 534T369 511T368 487Z" />
<glyph unicode="" glyph-name="FL007Fh" horiz-adv-x="154" />
</font>
</defs>
</svg>
